name Walk9.mot
datacolumns 19
datarows 15
range 3.97000000 3.98400000
endheader

                time	   L_ground_force_vx	   L_ground_force_vy	   L_ground_force_vz	   L_ground_force_px	   L_ground_force_py	   L_ground_force_pz	   R_ground_force_vx	   R_ground_force_vy	   R_ground_force_vz	   R_ground_force_px	   R_ground_force_py	   R_ground_force_pz	   L_ground_torque_x	   L_ground_torque_y	   L_ground_torque_z	   R_ground_torque_x	   R_ground_torque_y	   R_ground_torque_z	
          3.97000000	        -28.36824122	        667.81276775	        -48.03365520	          0.46336720	          0.00000000	          0.10280397	          0.00000000	          0.00000000	          0.00000000	          0.00000000	          0.00000000	          0.00000000	          0.00000000	          4.72109408	          0.00000000	          0.00000000	          0.00000000	          0.00000000	
          3.97100000	        -28.22124328	        666.18718570	        -47.94131434	          0.46392867	          0.00000000	          0.10281376	          0.00000000	          0.00000000	          0.00000000	          0.00000000	          0.00000000	          0.00000000	          0.00000000	          4.66851763	          0.00000000	          0.00000000	          0.00000000	          0.00000000	
          3.97200000	        -28.05564498	        664.64176243	        -47.87339422	          0.46449026	          0.00000000	          0.10283224	          0.00000000	          0.00000000	          0.00000000	          0.00000000	          0.00000000	          0.00000000	          0.00000000	          4.60835611	          0.00000000	          0.00000000	          0.00000000	          0.00000000	
          3.97300000	        -27.85528053	        663.11871202	        -47.81059912	          0.46506031	          0.00000000	          0.10283806	          0.00000000	          0.00000000	          0.00000000	          0.00000000	          0.00000000	          0.00000000	          0.00000000	          4.53996310	          0.00000000	          0.00000000	          0.00000000	          0.00000000	
          3.97400000	        -27.62260019	        661.59255074	        -47.73894381	          0.46562834	          0.00000000	          0.10281415	          0.00000000	          0.00000000	          0.00000000	          0.00000000	          0.00000000	          0.00000000	          0.00000000	          4.46732822	          0.00000000	          0.00000000	          0.00000000	          0.00000000	
          3.97500000	        -27.37951268	        660.11960319	        -47.66434699	          0.46618720	          0.00000000	          0.10277127	          0.00000000	          0.00000000	          0.00000000	          0.00000000	          0.00000000	          0.00000000	          0.00000000	          4.39775486	          0.00000000	          0.00000000	          0.00000000	          0.00000000	
          3.97600000	        -27.15301513	        658.78672289	        -47.60372266	          0.46676414	          0.00000000	          0.10274693	          0.00000000	          0.00000000	          0.00000000	          0.00000000	          0.00000000	          0.00000000	          0.00000000	          4.33769758	          0.00000000	          0.00000000	          0.00000000	          0.00000000	
          3.97700000	        -26.95855316	        657.62179039	        -47.56510846	          0.46738386	          0.00000000	          0.10276751	          0.00000000	          0.00000000	          0.00000000	          0.00000000	          0.00000000	          0.00000000	          0.00000000	          4.29128067	          0.00000000	          0.00000000	          0.00000000	          0.00000000	
          3.97800000	        -26.79381410	        656.56052674	        -47.54439434	          0.46802381	          0.00000000	          0.10282940	          0.00000000	          0.00000000	          0.00000000	          0.00000000	          0.00000000	          0.00000000	          0.00000000	          4.25944103	          0.00000000	          0.00000000	          0.00000000	          0.00000000	
          3.97900000	        -26.64488992	        655.50423462	        -47.53112375	          0.46864067	          0.00000000	          0.10291699	          0.00000000	          0.00000000	          0.00000000	          0.00000000	          0.00000000	          0.00000000	          0.00000000	          4.23787678	          0.00000000	          0.00000000	          0.00000000	          0.00000000	
          3.98000000	        -26.49781873	        654.39802231	        -47.50941266	          0.46921945	          0.00000000	          0.10301290	          0.00000000	          0.00000000	          0.00000000	          0.00000000	          0.00000000	          0.00000000	          0.00000000	          4.21743231	          0.00000000	          0.00000000	          0.00000000	          0.00000000	
          3.98100000	        -26.34597075	        653.23979889	        -47.46443311	          0.46977992	          0.00000000	          0.10309186	          0.00000000	          0.00000000	          0.00000000	          0.00000000	          0.00000000	          0.00000000	          0.00000000	          4.18876895	          0.00000000	          0.00000000	          0.00000000	          0.00000000	
          3.98200000	        -26.19097614	        652.04984464	        -47.39486287	          0.47034669	          0.00000000	          0.10312953	          0.00000000	          0.00000000	          0.00000000	          0.00000000	          0.00000000	          0.00000000	          0.00000000	          4.14854109	          0.00000000	          0.00000000	          0.00000000	          0.00000000	
          3.98300000	        -26.03691140	        650.85193908	        -47.31087963	          0.47093258	          0.00000000	          0.10311988	          0.00000000	          0.00000000	          0.00000000	          0.00000000	          0.00000000	          0.00000000	          0.00000000	          4.09946172	          0.00000000	          0.00000000	          0.00000000	          0.00000000	
          3.98400000	        -25.88253958	        649.65541836	        -47.22085249	          0.47154353	          0.00000000	          0.10307049	          0.00000000	          0.00000000	          0.00000000	          0.00000000	          0.00000000	          0.00000000	          0.00000000	          4.04392601	          0.00000000	          0.00000000	          0.00000000	          0.00000000	
